<?xml version="1.0" standalone="no"?>
<!DOCTYPE svg PUBLIC "-//W3C//DTD SVG 20010904//EN"
 "http://www.w3.org/TR/2001/REC-SVG-20010904/DTD/svg10.dtd">
<svg version="1.0" xmlns="http://www.w3.org/2000/svg"
 width="700.000000pt" height="700.000000pt" viewBox="0 0 700.000000 700.000000"
 preserveAspectRatio="xMidYMid meet">
<metadata>
Created by potrace 1.11, written by Peter Selinger 2001-2013
</metadata>
<g transform="translate(0.000000,700.000000) scale(0.100000,-0.100000)"
fill="#000000" stroke="none">
<path d="M3278 6995 c-2 -1 -41 -5 -88 -9 -87 -7 -105 -9 -225 -27 -116 -18
-123 -19 -192 -35 -178 -40 -341 -84 -388 -104 -11 -4 -76 -29 -145 -55 -381
-145 -751 -370 -1065 -649 -364 -324 -686 -763 -869 -1186 -16 -36 -35 -78
-42 -95 -54 -120 -153 -432 -180 -570 -2 -11 -10 -54 -19 -95 -29 -147 -36
-200 -52 -370 -15 -165 -8 -592 12 -711 2 -13 6 -46 9 -74 9 -78 23 -156 51
-285 31 -142 109 -393 175 -555 49 -123 173 -370 235 -468 30 -49 55 -90 55
-93 0 -3 4 -10 10 -17 5 -7 46 -64 91 -126 72 -103 179 -239 234 -297 243
-261 429 -421 682 -590 77 -52 145 -94 149 -94 4 0 15 -6 23 -14 28 -25 333
-174 461 -225 267 -106 554 -183 805 -216 22 -2 56 -7 75 -10 186 -26 698 -27
838 0 16 3 104 15 147 20 324 41 870 235 1167 415 37 22 70 40 73 40 3 0 11 5
18 10 7 6 62 43 122 83 253 168 492 376 678 592 33 39 63 72 67 75 17 13 181
236 245 335 219 336 406 779 481 1140 16 79 54 301 59 350 4 33 9 71 11 85 9
47 11 525 4 605 -13 130 -21 202 -25 227 -3 13 -8 43 -11 68 -9 69 -70 336
-97 425 -206 676 -586 1250 -1127 1703 -67 56 -306 231 -351 257 -10 5 -54 32
-99 58 -324 192 -687 334 -1038 408 -54 11 -106 22 -117 25 -11 2 -38 6 -60 9
-22 3 -51 7 -65 10 -13 2 -52 7 -86 11 -33 3 -74 8 -90 10 -32 5 -540 14 -546
9z"/>
</g>
</svg>
